<svg xmlns="http://www.w3.org/2000/svg" width="351" height="79" viewBox="0 0 351 79">
  <g fill="none" fill-rule="evenodd" transform="translate(0 -.215)">
    <path fill="#000" fill-rule="nonzero" d="M112.990694,62.6805556 L112.990694,42.2502788 L135.302707,42.2502788 L135.302707,62.6805556 L142.762446,62.6805556 L142.762446,15.637155 L135.302707,15.637155 L135.302707,35.4625881 L112.990694,35.4625881 L112.990694,15.637155 L105.530955,15.637155 L105.530955,62.6805556 L112.990694,62.6805556 Z M161.398365,63.5542187 C165.766681,63.5542187 168.589285,62.0757118 170.403816,60.0595661 L171.00866,62.6805556 L177.393121,62.6805556 L177.393121,40.0325185 C177.393121,32.3711647 173.831264,26.7259566 163.414511,26.7259566 C157.567688,26.7259566 152.863348,28.9437169 150.040744,30.7582481 L152.863348,35.8658173 C155.417133,34.4545153 158.777376,33.1104181 162.675257,33.1104181 C167.312393,33.1104181 170.134997,35.529793 170.134997,39.5620844 L170.134997,42.8551225 C168.790899,41.645435 165.766681,40.3013379 161.734389,40.3013379 C153.669806,40.3013379 148.159008,45.0728828 148.159008,51.8605734 C148.159008,58.9170835 154.005831,63.5542187 161.398365,63.5542187 Z M162.944077,57.7073961 C158.508556,57.7073961 155.484338,55.1536115 155.484338,51.6589589 C155.484338,48.1643063 158.441351,45.6105217 162.876872,45.6105217 C167.312393,45.6105217 170.336611,47.9626917 170.336611,51.6589589 C170.336611,55.2880212 167.245188,57.7073961 162.944077,57.7073961 Z M190.988676,62.6805556 L190.988676,47.5594625 C190.988676,39.9653136 193.206436,34.118491 200.86779,34.118491 L200.86779,26.7259566 C195.894631,26.7259566 192.198363,29.6157655 190.854266,33.1104181 L190.854266,27.5996197 L183.663347,27.5996197 L183.663347,62.6805556 L190.988676,62.6805556 Z M212.17838,62.6805556 L212.17838,41.5782302 C212.17838,36.5378658 215.269803,33.3120327 219.23489,33.3120327 C223.401591,33.3120327 225.955376,36.2018416 225.955376,40.9733865 L225.955376,62.6805556 L233.280705,62.6805556 L233.280705,41.7126399 C233.280705,36.3362513 236.304924,33.3120327 240.40442,33.3120327 C244.772736,33.3120327 247.124906,36.2018416 247.124906,41.645435 L247.124906,62.6805556 L254.383031,62.6805556 L254.383031,39.763699 C254.383031,32.1695501 250.350739,26.7259566 242.420566,26.7259566 C237.581816,26.7259566 233.683934,28.876512 231.600584,32.5727792 C229.920462,29.0109218 226.42581,26.7259566 221.519855,26.7259566 C216.74831,26.7259566 213.320862,29.4813558 212.04397,32.1695501 L212.04397,27.5996197 L212.04397,27.5996197 L204.85305,27.5996197 L204.85305,62.6805556 L212.17838,62.6805556 Z M277.252856,63.5542187 C287.938428,63.5542187 295.868601,55.6912503 295.868601,45.1400877 C295.868601,34.588925 288.072838,26.7259566 277.252856,26.7259566 C266.701693,26.7259566 258.704315,34.588925 258.704315,45.2072925 C258.704315,55.8256601 266.500079,63.5542187 277.252856,63.5542187 Z M277.252856,57.0353475 C270.733985,57.0353475 266.096849,52.1293929 266.096849,45.2072925 C266.096849,38.352397 270.66678,33.2448278 277.252856,33.2448278 C283.771727,33.2448278 288.543272,38.2851922 288.543272,45.1400877 C288.543272,51.9949832 283.771727,57.0353475 277.252856,57.0353475 Z M307.784035,62.6805556 L307.784035,41.5110253 C307.784035,36.7394804 310.808253,33.3120327 315.445389,33.3120327 C319.47768,33.3120327 322.501899,36.1346367 322.501899,40.9733865 L322.501899,62.6805556 L329.760023,62.6805556 L329.760023,41.5782302 C329.760023,33.9168764 326.601395,26.7259566 317.528739,26.7259566 C312.824399,26.7259566 309.195337,29.4141509 307.649625,32.1695501 L307.649625,27.5996197 L300.458705,27.5996197 L300.458705,62.6805556 L307.784035,62.6805556 Z M339.860926,23.5001234 C342.41471,23.5001234 344.430856,21.4839777 344.430856,18.9301931 C344.430856,16.3764085 342.41471,14.3602627 339.860926,14.3602627 C337.307141,14.3602627 335.290995,16.3764085 335.290995,18.9301931 C335.290995,21.4839777 337.307141,23.5001234 339.860926,23.5001234 Z M343.557193,62.6805556 L343.557193,27.5996197 L336.231863,27.5996197 L336.231863,62.6805556 L343.557193,62.6805556 Z"/>
    <g transform="translate(0 .215)">
      <path fill="#FACC15" d="M39.0104167,-1.42108547e-14 C7.79901286,-1.42108547e-14 0,7.79901286 0,39.0104167 C0,70.2218205 7.79901286,78.0208333 39.0104167,78.0208333 C70.2218205,78.0208333 78.0208333,70.2218205 78.0208333,39.0104167 C78.0208333,7.79901286 70.2218205,-1.42108547e-14 39.0104167,-1.42108547e-14 Z"/>
      <g fill="#FFF" transform="translate(15.556 15.799)">
        <path d="M-3.1519079,17.5 L32.355034,17.5 C33.6596583,17.5 34.6111545,17.7299497 35.4185455,18.1617471 C36.2259364,18.5935445 36.8595816,19.2271897 37.291379,20.0345806 C37.7231764,20.8419716 37.9531261,21.7934678 37.9531261,23.0980921 L37.9531261,23.5685746 C37.9531261,24.8731989 37.7231764,25.8246951 37.291379,26.632086 C36.8595816,27.439477 36.2259364,28.0731222 35.4185455,28.5049196 C34.6111545,28.936717 33.6596583,29.1666667 32.355034,29.1666667 L-3.1519079,29.1666667 C-4.45653223,29.1666667 -5.4080284,28.936717 -6.21541937,28.5049196 C-7.02281034,28.0731222 -7.6564555,27.439477 -8.08825291,26.632086 C-8.52005033,25.8246951 -8.75,24.8731989 -8.75,23.5685746 L-8.75,23.0980921 C-8.75,21.7934678 -8.52005033,20.8419716 -8.08825291,20.0345806 C-7.6564555,19.2271897 -7.02281034,18.5935445 -6.21541937,18.1617471 C-5.4080284,17.7299497 -4.45653223,17.5 -3.1519079,17.5 Z" transform="rotate(90 14.602 23.333)"/>
        <path d="M14.3480921,17.5 L49.855034,17.5 C51.1596583,17.5 52.1111545,17.7299497 52.9185455,18.1617471 C53.7259364,18.5935445 54.3595816,19.2271897 54.791379,20.0345806 C55.2231764,20.8419716 55.4531261,21.7934678 55.4531261,23.0980921 L55.4531261,23.5685746 C55.4531261,24.8731989 55.2231764,25.8246951 54.791379,26.632086 C54.3595816,27.439477 53.7259364,28.0731222 52.9185455,28.5049196 C52.1111545,28.936717 51.1596583,29.1666667 49.855034,29.1666667 L14.3480921,29.1666667 C13.0434678,29.1666667 12.0919716,28.936717 11.2845806,28.5049196 C10.4771897,28.0731222 9.8435445,27.439477 9.41174709,26.632086 C8.97994967,25.8246951 8.75,24.8731989 8.75,23.5685746 L8.75,23.0980921 C8.75,21.7934678 8.97994967,20.8419716 9.41174709,20.0345806 C9.8435445,19.2271897 10.4771897,18.5935445 11.2845806,18.1617471 C12.0919716,17.7299497 13.0434678,17.5 14.3480921,17.5 Z" transform="rotate(90 32.102 23.333)"/>
        <path d="M4.6928452,16.953125 L41.8039527,16.953125 C43.108577,16.953125 44.0600732,17.1830747 44.8674641,17.6148721 C45.6748551,18.0466695 46.3085003,18.6803147 46.7402977,19.4877056 C47.1720951,20.2950966 47.4020448,21.2465928 47.4020448,22.5512171 L47.4020448,23.0216996 C47.4020448,24.3263239 47.1720951,25.2778201 46.7402977,26.085211 C46.3085003,26.892602 45.6748551,27.5262472 44.8674641,27.9580446 C44.0600732,28.389842 43.108577,28.6197917 41.8039527,28.6197917 L4.6928452,28.6197917 C3.38822088,28.6197917 2.43672471,28.389842 1.62933374,27.9580446 C0.821942768,27.5262472 0.18829761,26.892602 -0.243499806,26.085211 C-0.675297222,25.2778201 -0.905246895,24.3263239 -0.905246895,23.0216996 L-0.905246895,22.5512171 C-0.905246895,21.2465928 -0.675297222,20.2950966 -0.243499806,19.4877056 C0.18829761,18.6803147 0.821942768,18.0466695 1.62933374,17.6148721 C2.43672471,17.1830747 3.38822088,16.953125 4.6928452,16.953125 Z" transform="rotate(165 23.248 22.786)"/>
      </g>
    </g>
  </g>
</svg>
