<?xml version="1.0" encoding="UTF-8"?>
<svg width="1440px" height="321px" viewBox="0 0 1440 321" version="1.1" xmlns="http://www.w3.org/2000/svg" xmlns:xlink="http://www.w3.org/1999/xlink">
    <title>app/public/wp-content/themes/harmoni/assets/images/logo</title>
    <g id="assets" stroke="none" stroke-width="1" fill="none" fill-rule="evenodd">
        <g id="app/public/wp-content/themes/harmoni-child/assets/images/harmoniLogoWritingOutline" transform="translate(0.000000, -5.000000)">
            <path d="M464.875998,262 L464.875998,177.944004 L556.673993,177.944004 L556.673993,262 L587.365492,262 L587.365492,68.4500093 L556.673993,68.4500093 L556.673993,150.017505 L464.875998,150.017505 L464.875998,68.4500093 L434.184499,68.4500093 L434.184499,262 L464.875998,262 Z M664.038988,265.5945 C682.011487,265.5945 693.624486,259.5115 701.089986,251.216501 L703.578486,262 L729.845984,262 L729.845984,168.819504 C729.845984,137.298506 715.191485,114.072507 672.333987,114.072507 C648.278488,114.072507 628.923489,123.197007 617.31049,130.662506 L628.923489,151.676505 C639.430489,145.870006 653.255488,140.340006 669.292487,140.340006 C688.370986,140.340006 699.983986,150.294005 699.983986,166.884005 L699.983986,180.432504 C694.453986,175.455504 682.011487,169.925504 665.421488,169.925504 C632.241489,169.925504 609.56849,189.557003 609.56849,217.483502 C609.56849,246.516001 633.623989,265.5945 664.038988,265.5945 Z M670.398487,241.539001 C652.149488,241.539001 639.706989,231.032001 639.706989,216.654002 C639.706989,202.276003 651.872988,191.769003 670.121987,191.769003 C688.370986,191.769003 700.813486,201.446503 700.813486,216.654002 C700.813486,231.585001 688.094486,241.539001 670.398487,241.539001 Z M785.781981,262 L785.781981,199.787503 C785.781981,168.543005 794.906481,144.487506 826.42748,144.487506 L826.42748,114.072507 C805.96648,114.072507 790.758981,125.962007 785.228981,140.340006 L785.228981,117.667007 L755.643483,117.667007 L755.643483,262 L785.781981,262 Z M872.962477,262 L872.962477,175.179004 C872.962477,154.441505 885.681476,141.169506 901.994976,141.169506 C919.137975,141.169506 929.644974,153.059005 929.644974,172.690504 L929.644974,262 L959.783473,262 L959.783473,175.732004 C959.783473,153.612005 972.225972,141.169506 989.092471,141.169506 C1007.06497,141.169506 1016.74247,153.059005 1016.74247,175.455504 L1016.74247,262 L1046.60447,262 L1046.60447,167.713505 C1046.60447,136.469006 1030.01447,114.072507 997.387471,114.072507 C977.479472,114.072507 961.442473,122.920507 952.870973,138.128006 C945.958473,123.473507 931.580474,114.072507 911.395975,114.072507 C891.764476,114.072507 877.662977,125.409007 872.409477,136.469006 L872.409477,117.667007 L872.409477,117.667007 L842.823978,117.667007 L842.823978,262 L872.962477,262 Z M1140.69746,265.5945 C1184.66096,265.5945 1217.28796,233.244001 1217.28796,189.833503 C1217.28796,146.423006 1185.21396,114.072507 1140.69746,114.072507 C1097.28697,114.072507 1064.38347,146.423006 1064.38347,190.110003 C1064.38347,233.797001 1096.45747,265.5945 1140.69746,265.5945 Z M1140.69746,238.774001 C1113.87697,238.774001 1094.79847,218.589502 1094.79847,190.110003 C1094.79847,161.907005 1113.60047,140.893006 1140.69746,140.893006 C1167.51796,140.893006 1187.14946,161.630505 1187.14946,189.833503 C1187.14946,218.036502 1167.51796,238.774001 1140.69746,238.774001 Z M1266.31146,262 L1266.31146,174.902504 C1266.31146,155.271005 1278.75396,141.169506 1297.83246,141.169506 C1314.42246,141.169506 1326.86495,152.782505 1326.86495,172.690504 L1326.86495,262 L1356.72695,262 L1356.72695,175.179004 C1356.72695,143.658006 1343.73145,114.072507 1306.40396,114.072507 C1287.04896,114.072507 1272.11796,125.132507 1265.75846,136.469006 L1265.75846,117.667007 L1236.17296,117.667007 L1236.17296,262 L1266.31146,262 Z M1398.28495,100.800508 C1408.79195,100.800508 1417.08695,92.5055082 1417.08695,81.9985087 C1417.08695,71.4915092 1408.79195,63.1965096 1398.28495,63.1965096 C1387.77795,63.1965096 1379.48295,71.4915092 1379.48295,81.9985087 C1379.48295,92.5055082 1387.77795,100.800508 1398.28495,100.800508 Z M1413.49245,262 L1413.49245,117.667007 L1383.35395,117.667007 L1383.35395,262 L1413.49245,262 Z" id="Harmoni" fill="#000000" fill-rule="nonzero"></path>
            <g id="logoCircleTemplate" transform="translate(-0.000000, 5.000000)">
                <path d="M160.5,0 C32.0873672,0 0,32.0873672 0,160.5 C0,288.912633 32.0873672,321 160.5,321 C288.912633,321 321,288.912633 321,160.5 C321,32.0873672 288.912633,0 160.5,0 Z" id="Path" fill="#FFD600"></path>
                <g id="assets/spacepressLogo" transform="translate(64.000000, 65.000000)" fill="#FFFFFF">
                    <path d="M-12.9678496,72 L133.117854,72 C138.485451,72 142.400178,72.9460787 145.722016,74.7226166 C149.043853,76.4991545 151.65085,79.1061518 153.427388,82.4279889 C155.203926,85.749826 156.150005,89.6645531 156.150005,95.0321504 L156.150005,96.9678496 C156.150005,102.335447 155.203926,106.250174 153.427388,109.572011 C151.65085,112.893848 149.043853,115.500845 145.722016,117.277383 C142.400178,119.053921 138.485451,120 133.117854,120 L-12.9678496,120 C-18.3354469,120 -22.250174,119.053921 -25.5720111,117.277383 C-28.8938482,115.500845 -31.5008455,112.893848 -33.2773834,109.572011 C-35.0539213,106.250174 -36,102.335447 -36,96.9678496 L-36,95.0321504 C-36,89.6645531 -35.0539213,85.749826 -33.2773834,82.4279889 C-31.5008455,79.1061518 -28.8938482,76.4991545 -25.5720111,74.7226166 C-22.250174,72.9460787 -18.3354469,72 -12.9678496,72 Z" id="Rectangle" transform="translate(60.075002, 96.000000) rotate(-270.000000) translate(-60.075002, -96.000000) "></path>
                    <path d="M59.0321504,72 L205.117854,72 C210.485451,72 214.400178,72.9460787 217.722016,74.7226166 C221.043853,76.4991545 223.65085,79.1061518 225.427388,82.4279889 C227.203926,85.749826 228.150005,89.6645531 228.150005,95.0321504 L228.150005,96.9678496 C228.150005,102.335447 227.203926,106.250174 225.427388,109.572011 C223.65085,112.893848 221.043853,115.500845 217.722016,117.277383 C214.400178,119.053921 210.485451,120 205.117854,120 L59.0321504,120 C53.6645531,120 49.749826,119.053921 46.4279889,117.277383 C43.1061518,115.500845 40.4991545,112.893848 38.7226166,109.572011 C36.9460787,106.250174 36,102.335447 36,96.9678496 L36,95.0321504 C36,89.6645531 36.9460787,85.749826 38.7226166,82.4279889 C40.4991545,79.1061518 43.1061518,76.4991545 46.4279889,74.7226166 C49.749826,72.9460787 53.6645531,72 59.0321504,72 Z" id="Rectangle-Copy" transform="translate(132.075002, 96.000000) rotate(-270.000000) translate(-132.075002, -96.000000) "></path>
                    <path d="M19.307706,69.75 L171.993405,69.75 C177.361003,69.75 181.27573,70.6960787 184.597567,72.4726166 C187.919404,74.2491545 190.526401,76.8561518 192.302939,80.1779889 C194.079477,83.499826 195.025556,87.4145531 195.025556,92.7821504 L195.025556,94.7178496 C195.025556,100.085447 194.079477,104.000174 192.302939,107.322011 C190.526401,110.643848 187.919404,113.250845 184.597567,115.027383 C181.27573,116.803921 177.361003,117.75 171.993405,117.75 L19.307706,117.75 C13.9401088,117.75 10.0253817,116.803921 6.70354452,115.027383 C3.38170739,113.250845 0.774710165,110.643848 -1.00182777,107.322011 C-2.77836571,104.000174 -3.72444437,100.085447 -3.72444437,94.7178496 L-3.72444437,92.7821504 C-3.72444437,87.4145531 -2.77836571,83.499826 -1.00182777,80.1779889 C0.774710165,76.8561518 3.38170739,74.2491545 6.70354452,72.4726166 C10.0253817,70.6960787 13.9401088,69.75 19.307706,69.75 Z" id="Rectangle-Copy-2" transform="translate(95.650556, 93.750000) rotate(165.000000) translate(-95.650556, -93.750000) "></path>
                </g>
            </g>
        </g>
    </g>
</svg>